<svg xmlns="http://www.w3.org/2000/svg" xmlns:xlink="http://www.w3.org/1999/xlink"><symbol id="icon-facebook" viewBox="0 0 8 18"><path d="M8 5.83H5.276V3.96a.75.75 0 01.757-.87h1.923V.01L5.308 0C2.369 0 1.7 2.3 1.7 3.77v2.06H0v3.18h1.7V18h3.576V9.01h2.412z" fill-rule="evenodd"/></symbol><symbol id="icon-in" viewBox="0 0 16 16"><path d="M8.6 7.22v-.03l-.016.03H8.6zM14.816 0H1.182A1.163 1.163 0 000 1.15v13.7A1.163 1.163 0 001.182 16H14.82A1.163 1.163 0 0016 14.85V1.15A1.163 1.163 0 0014.82 0zm-9.97 13.39H2.429V6.17h2.417v7.22zM3.638 5.18h-.016a1.381 1.381 0 11.02 0zm9.918 8.21h-2.41V9.53c0-.97-.352-1.64-1.227-1.64a1.326 1.326 0 00-1.24.88 1.661 1.661 0 00-.079.59v4.03H6.183s.032-6.54 0-7.22H8.6v1.02A2.4 2.4 0 0110.778 6c1.588 0 2.778 1.03 2.778 3.25v4.14z" fill-rule="evenodd"/></symbol><symbol id="icon-twitter" viewBox="0 0 20 13.81"><path d="M16 2.28a.1.1 0 01-.038-.03 3.636 3.636 0 00-2.637-.94l-.031-.07h.018a3.205 3.205 0 001.621-.63.2.2 0 00-.211-.3 5.85 5.85 0 00-1.266.29q.72-.435.561-.6a2.523 2.523 0 00-1.521.69.753.753 0 00.224-.52 3.959 3.959 0 00-.673.53 10.371 10.371 0 00-.979 1.19l-.012.03a10.225 10.225 0 00-1.36 2.98l-.1.07-.019.02a4.966 4.966 0 00-1.4-1.15A17.052 17.052 0 005.87 2.68a19.941 19.941 0 00-2.937-1.16 2.763 2.763 0 001.615 2.49v.02a3.411 3.411 0 00-1.1.15q.1 1.455 2.182 2.01l-.006.02a1.638 1.638 0 00-1.34.52 2.431 2.431 0 002.425 1.21 1.575 1.575 0 00-.53.37.737.737 0 00-.212.74 1.353 1.353 0 001.359.6l.038.04c-.007.01-.013.01-.019.02a5.213 5.213 0 01-4.134 1.51l-.025.01A5.375 5.375 0 01.007 9.89a9.782 9.782 0 004.551 3.39 11.389 11.389 0 006.465.14h.038a10.2 10.2 0 005.317-3.5 6.889 6.889 0 001.266-2.66 2.665 2.665 0 002.363-.89l-.012-.02a4.94 4.94 0 01-2.126-.12v-.11h.006c1.154-.12 1.833-.47 2.051-1.06a3.371 3.371 0 01-2.382.03A4.77 4.77 0 0016 2.28z" fill-rule="evenodd"/></symbol></svg>