<svg width="60" height="60" viewBox="0 0 60 60" fill="none" xmlns="http://www.w3.org/2000/svg">
<path d="M47.76 9.66041C43.56 3.72041 37.08 0.42041 30 0.42041C22.8 0.42041 16.38 3.84041 12.3 9.72041C8.28005 15.6004 7.38005 23.0404 9.96005 29.5804C10.32 30.3604 10.68 31.2604 11.22 32.1004L27.18 58.0204C27.78 59.0404 28.86 59.6404 30.06 59.6404C31.26 59.6404 32.28 59.0404 32.94 58.0204L48.96 31.9204C49.5 30.9604 49.98 30.1204 50.28 29.2804C52.74 22.8004 51.78 15.4204 47.76 9.66041ZM30 32.2204C23.94 32.2204 19.02 27.2404 19.02 21.2404C19.02 15.2404 23.94 10.2004 30 10.2004C36.06 10.2004 40.98 15.1804 40.98 21.1804C40.98 27.1804 36.06 32.2204 30 32.2204Z" fill="#2F80ED"/>
<circle cx="30" cy="21" r="5" fill="#2F80ED"/>
</svg>
