<svg width="20" height="20" viewBox="0 0 20 20" fill="none" xmlns="http://www.w3.org/2000/svg">
<path d="M13.8417 18.9925C12.2849 18.9925 10.8217 18.3865 9.72091 17.2857L2.51051 10.0753C1.40971 8.97488 0.803711 7.51128 0.803711 5.95488C0.803711 4.39848 1.40971 2.93488 2.51051 1.83448C3.20371 1.14128 3.88211 0.804077 4.58491 0.804077C5.81891 0.804077 6.79571 1.83128 7.92731 3.02088C8.17771 3.28448 8.43851 3.55848 8.71371 3.83368C8.76051 3.88048 9.17211 4.31488 9.17211 5.10648C9.17211 5.89768 8.50691 6.58608 8.43051 6.66208C7.73891 7.35368 7.58771 8.42608 8.05851 9.27928C8.32491 9.60968 10.3117 11.5597 10.6721 11.8161C10.9541 11.9433 11.2669 12.0105 11.5785 12.0105C12.1665 12.0105 12.7189 11.7817 13.1345 11.3661C13.2101 11.2905 13.8985 10.6245 14.6901 10.6245C15.4817 10.6245 15.9157 11.0361 15.9629 11.0829C16.2381 11.3581 16.5121 11.6185 16.7753 11.8689C17.9565 12.9929 18.9769 13.9629 18.9921 15.1849C19.0009 15.8969 18.6645 16.5845 17.9625 17.2861C16.8617 18.3869 15.3985 18.9925 13.8417 18.9925ZM4.58491 2.00408C4.21651 2.00408 3.81571 2.22608 3.35931 2.68248C2.48531 3.55648 2.00411 4.71848 2.00411 5.95448C2.00411 7.19048 2.48531 8.35248 3.35931 9.22648L10.5697 16.4373C11.4437 17.3113 12.6057 17.7925 13.8421 17.7925C15.0785 17.7925 16.2405 17.3113 17.1145 16.4373C17.5753 15.9765 17.7973 15.5713 17.7925 15.1997C17.7837 14.4833 16.9333 13.6749 15.9489 12.7381C15.6785 12.4809 15.3969 12.2133 15.1149 11.9309C15.1153 11.9317 15.1157 11.9317 15.1153 11.9317C15.1129 11.9317 14.9697 11.8237 14.6905 11.8237C14.4789 11.8237 14.1425 12.0573 13.9821 12.2153C13.3413 12.8561 12.4877 13.2097 11.5793 13.2097C11.0837 13.2097 10.5857 13.0993 10.1381 12.8901C9.68891 12.6801 7.18811 10.1741 7.03011 9.89688C6.27531 8.57168 6.50291 6.89208 7.58251 5.81248C7.73891 5.65368 7.97251 5.31728 7.97251 5.10528C7.97251 4.81368 7.85451 4.67048 7.84971 4.66448C7.58291 4.39888 7.31531 4.11728 7.05811 3.84728C6.11691 2.85848 5.30411 2.00408 4.58491 2.00408Z" fill="white"/>
</svg>
