<svg width="40" height="40" viewBox="0 0 40 40" fill="none" xmlns="http://www.w3.org/2000/svg">
<path d="M28.6841 32.811C28.0735 32.8282 27.4938 33.083 27.0684 33.5212C26.6429 33.9594 26.4054 34.5464 26.4063 35.1572C26.4061 35.4651 26.4667 35.77 26.5844 36.0544C26.7022 36.3389 26.8748 36.5973 27.0924 36.815C27.3101 37.0327 27.5685 37.2055 27.8529 37.3234C28.1373 37.4412 28.4421 37.5019 28.75 37.5019C29.0579 37.5019 29.3627 37.4412 29.6471 37.3234C29.9315 37.2055 30.1899 37.0327 30.4076 36.815C30.6252 36.5973 30.7978 36.3389 30.9156 36.0544C31.0333 35.77 31.0939 35.4651 31.0938 35.1572C31.0942 34.8436 31.0317 34.5332 30.91 34.2441C30.7883 33.9551 30.6097 33.6934 30.385 33.4746C30.1603 33.2559 29.894 33.0843 29.6018 32.9703C29.3097 32.8563 28.9976 32.8022 28.6841 32.811ZM28.7182 34.0635C28.8645 34.0592 29.0102 34.0844 29.1466 34.1374C29.2829 34.1905 29.4073 34.2705 29.5122 34.3724C29.6172 34.4744 29.7006 34.5964 29.7575 34.7312C29.8145 34.866 29.8438 35.0109 29.8437 35.1572C29.844 35.301 29.816 35.4435 29.7611 35.5765C29.7063 35.7095 29.6258 35.8304 29.5242 35.9322C29.4226 36.034 29.3019 36.1147 29.1691 36.1698C29.0362 36.2249 28.8938 36.2533 28.75 36.2533C28.6062 36.2533 28.4637 36.2249 28.3309 36.1698C28.198 36.1147 28.0774 36.034 27.9758 35.9322C27.8742 35.8304 27.7937 35.7095 27.7388 35.5765C27.684 35.4435 27.6559 35.301 27.6562 35.1572C27.6561 34.8726 27.767 34.599 27.9653 34.3948C28.1636 34.1906 28.4337 34.0717 28.7182 34.0635Z" fill="#2F80ED"/>
<path d="M11.1816 32.813C10.572 32.8308 9.99323 33.0856 9.56837 33.5232C9.14351 33.9609 8.90599 34.5469 8.90625 35.1568C8.90709 35.7778 9.15439 36.3733 9.59383 36.8121C10.0333 37.251 10.6289 37.4974 11.25 37.4974C11.8711 37.4974 12.4667 37.251 12.9062 36.8121C13.3456 36.3733 13.5929 35.7778 13.5938 35.1568C13.5939 34.8432 13.5311 34.5328 13.409 34.2438C13.287 33.9549 13.1082 33.6935 12.8833 33.4749C12.6584 33.2564 12.3919 33.0851 12.0996 32.9715C11.8073 32.8578 11.4951 32.8039 11.1816 32.813ZM11.2206 34.0606C11.3669 34.0567 11.5125 34.0821 11.6488 34.1354C11.785 34.1888 11.9092 34.2691 12.0139 34.3713C12.1186 34.4735 12.2018 34.5957 12.2584 34.7306C12.3151 34.8655 12.3441 35.0104 12.3437 35.1568C12.3437 35.3005 12.3155 35.4427 12.2606 35.5755C12.2056 35.7083 12.1251 35.829 12.0235 35.9306C11.9219 36.0322 11.8013 36.1128 11.6686 36.1678C11.5359 36.2228 11.3936 36.2511 11.2499 36.2511C11.1062 36.2511 10.964 36.2228 10.8312 36.1678C10.6985 36.1128 10.5779 36.0322 10.4763 35.9306C10.3747 35.829 10.2942 35.7083 10.2393 35.5755C10.1843 35.4427 10.1561 35.3005 10.1562 35.1568C10.1554 34.8713 10.2663 34.5968 10.4652 34.3919C10.6641 34.1871 10.9352 34.0682 11.2206 34.0606Z" fill="#2F80ED"/>
<path d="M30.2594 20.0023C29.9577 19.7075 29.6307 19.4397 29.2822 19.2018L29.5596 16.5625L30.8028 16.6928L30.4358 20.1847C30.3788 20.1221 30.32 20.0611 30.2595 20.0019L30.2594 20.0023Z" fill="#2F80ED"/>
<path d="M9.56475 20.1847L9.19775 16.6928L10.4409 16.5625L10.7183 19.2018C10.3699 19.4397 10.0429 19.7075 9.74111 20.0023C9.68056 20.0616 9.62175 20.1225 9.56474 20.1851L9.56475 20.1847Z" fill="#2F80ED"/>
<path d="M14.907 19.1929C14.1144 19.1784 13.3268 19.3216 12.59 19.6142C11.8532 19.9067 11.1819 20.3427 10.615 20.8969C10.1713 21.331 9.86686 21.8875 9.74061 22.4953C9.61436 23.1031 9.67198 23.7346 9.90614 24.3095C10.1403 24.8844 10.5404 25.3766 11.0553 25.7232C11.5703 26.0698 12.1769 26.2553 12.7976 26.2558H17.4998V28.4922C15.5139 29.0223 13.7482 30.1706 12.4583 31.771C12.8599 31.9147 13.2328 32.1288 13.5593 32.4033C14.3509 31.4667 15.3372 30.714 16.4496 30.1977C17.5619 29.6814 18.7735 29.4139 19.9998 29.4139C21.2261 29.4139 22.4376 29.6814 23.55 30.1977C24.6623 30.714 25.6486 31.4667 26.4402 32.4033C26.7668 32.1288 27.1396 31.9147 27.5413 31.771C26.2514 30.1706 24.4857 29.0223 22.4998 28.4922V26.2558H27.2019C27.8227 26.2553 28.4292 26.0698 28.9442 25.7232C29.4592 25.3766 29.8593 24.8844 30.0934 24.3095C30.3276 23.7346 30.3852 23.1031 30.259 22.4953C30.1327 21.8875 29.8283 21.331 29.3845 20.8969C28.6007 20.1308 27.6215 19.5947 26.5538 19.3472C25.4861 19.0996 24.3708 19.1501 23.3299 19.4931C21.1672 20.2069 18.8324 20.2069 16.6697 19.4931C16.1005 19.3052 15.5063 19.2039 14.907 19.1926V19.1929ZM14.885 20.4428C15.359 20.4522 15.8289 20.5328 16.279 20.6818C18.6954 21.4791 21.304 21.4791 23.7204 20.6818C24.5441 20.4097 25.4268 20.3691 26.272 20.5646C27.1171 20.7601 27.8924 21.1841 28.5129 21.7903C28.7793 22.0508 28.962 22.3848 29.0377 22.7496C29.1134 23.1145 29.0787 23.4935 28.938 23.8385C28.7974 24.1835 28.5571 24.4788 28.2478 24.6867C27.9386 24.8946 27.5745 25.0056 27.2019 25.0056H12.7976C12.4252 25.0051 12.0614 24.8937 11.7526 24.6857C11.4437 24.4776 11.2038 24.1824 11.0634 23.8375C10.9231 23.4926 10.8886 23.1135 10.9644 22.7489C11.0402 22.3843 11.2228 22.0507 11.489 21.7903C11.9376 21.3519 12.4688 21.0069 13.0517 20.7755C13.6347 20.5442 14.2579 20.4311 14.885 20.4426L14.885 20.4428ZM18.7497 26.2558H21.2497V28.243C20.4199 28.135 19.5796 28.135 18.7497 28.243V26.2558Z" fill="#2F80ED"/>
<path d="M26.8898 3.92003C28.0262 4.40685 28.9419 5.2974 29.4603 6.41981C29.9786 7.54222 30.0627 8.81684 29.6963 9.99762L27.1488 18.2089C26.744 18.096 26.3301 18.0185 25.9118 17.9774L28.5025 9.62737C28.7772 8.74178 28.7142 7.78586 28.3254 6.94404C27.9367 6.10223 27.2499 5.43425 26.3975 5.06914C24.3759 4.20308 22.1994 3.75653 20 3.75653C17.8006 3.75653 15.6241 4.20308 13.6025 5.06914C12.7501 5.43425 12.0633 6.10223 11.6746 6.94404C11.2858 7.78586 11.2228 8.74178 11.4975 9.62737L14.0882 17.9774C13.6699 18.0185 13.256 18.096 12.8512 18.2089L10.3037 9.99762C9.93732 8.81684 10.0214 7.54222 10.5397 6.41981C11.0581 5.2974 11.9738 4.40685 13.1102 3.92003C15.2875 2.98734 17.6314 2.50635 20 2.50635C22.3686 2.50635 24.7125 2.98734 26.8898 3.92003Z" fill="#2F80ED"/>
</svg>
