<svg width="40" height="40" viewBox="0 0 40 40" fill="none" xmlns="http://www.w3.org/2000/svg">
<path d="M24.2518 5.61865H15.7478C14.1622 5.61865 12.8714 6.90865 12.8714 8.49425V11.6219H9.36976C6.61136 11.6219 4.36816 13.8655 4.36816 16.6235V29.3794C4.36816 32.1378 6.61176 34.3811 9.36976 34.3811H30.6302C33.3886 34.3811 35.6326 32.1374 35.6326 29.3794V16.6235C35.6326 13.8651 33.3886 11.6219 30.6302 11.6219H27.1278V8.49425C27.1274 6.90825 25.837 5.61865 24.2518 5.61865ZM14.3714 8.49425C14.3714 7.73545 14.989 7.11865 15.7478 7.11865H24.2522C25.011 7.11865 25.6278 7.73545 25.6278 8.49425V11.6219H23.501V10.3451C23.501 9.46265 22.7834 8.74465 21.9006 8.74465H18.0994C17.217 8.74465 16.499 9.46225 16.499 10.3451V11.6219H14.3722V8.49425H14.3714ZM22.0006 11.6215H18.0338L18.099 10.2447L22.0006 10.3451V11.6215ZM30.6298 32.8811H9.36976C7.43896 32.8811 5.86816 31.3098 5.86816 29.3794V21.6251H14.9978V23.0015C14.9978 24.5871 16.2882 25.8779 17.8742 25.8779H22.1258C23.7114 25.8779 25.0022 24.5875 25.0022 23.0015V21.6251H34.1326V29.3794C34.1326 31.3098 32.5606 32.8811 30.6298 32.8811ZM16.4978 21.6251H23.5022V23.0015C23.5022 23.7603 22.8854 24.3779 22.1258 24.3779H17.8738C17.115 24.3779 16.4974 23.7603 16.4974 23.0015V21.6251H16.4978ZM34.1326 16.6235V20.1251H5.86776V16.6235C5.86776 14.6927 7.43896 13.1219 9.36936 13.1219H30.6298C32.5606 13.1215 34.1326 14.6927 34.1326 16.6235Z" fill="#2F80ED"/>
</svg>
