<svg width="30" height="31" viewBox="0 0 30 31" fill="none" xmlns="http://www.w3.org/2000/svg">
<path d="M2.55208 0.998535C1.1535 0.998535 0 2.15195 0 3.55062V28.4497C0 29.8484 1.1535 30.9985 2.55208 30.9985H27.4479C28.8465 30.9985 30 29.8484 30 28.4497V3.55062C30 2.15195 28.8465 0.998535 27.4479 0.998535H2.55208ZM2.55208 2.66846H27.4479C27.9519 2.66846 28.3333 3.04645 28.3333 3.55062V28.4497C28.3333 28.9539 27.9519 29.3319 27.4479 29.3319H2.55208C2.04806 29.3319 1.66667 28.9539 1.66667 28.4497V3.55062C1.66667 3.04645 2.04806 2.66846 2.55208 2.66846Z" fill="#2F80ED"/>
<path d="M14.1668 5.99854C13.9458 5.99856 13.7339 6.0864 13.5776 6.24268C13.4213 6.39895 13.3335 6.61086 13.3335 6.83187V11.8319C13.3335 12.0529 13.4213 12.2648 13.5776 12.4211C13.7339 12.5773 13.9458 12.6652 14.1668 12.6652H24.1668C24.3878 12.6652 24.5998 12.5773 24.7561 12.4211C24.9123 12.2648 25.0001 12.0529 25.0002 11.8319V6.83187C25.0001 6.61086 24.9123 6.39895 24.7561 6.24268C24.5998 6.0864 24.3878 5.99856 24.1668 5.99854H14.1668ZM15.0002 7.6652H23.3335V10.9985H15.0002V7.6652Z" fill="#2F80ED"/>
<path d="M14.1668 14.3318C13.9458 14.3318 13.7339 14.4197 13.5776 14.5759C13.4213 14.7322 13.3335 14.9441 13.3335 15.1651V20.1651C13.3335 20.3861 13.4213 20.598 13.5776 20.7543C13.7339 20.9106 13.9458 20.9984 14.1668 20.9985H24.1668C24.3878 20.9984 24.5998 20.9106 24.7561 20.7543C24.9123 20.598 25.0001 20.3861 25.0002 20.1651V15.1651C25.0001 14.9441 24.9123 14.7322 24.7561 14.5759C24.5998 14.4197 24.3878 14.3318 24.1668 14.3318H14.1668ZM15.0002 15.9985H23.3335V19.3318H15.0002V15.9985Z" fill="#2F80ED"/>
<path fill-rule="evenodd" clip-rule="evenodd" d="M5 7.66504V9.3317H10V7.66504H5Z" fill="#2F80ED"/>
<path fill-rule="evenodd" clip-rule="evenodd" d="M5 15.9985V17.6652H10V15.9985H5Z" fill="#2F80ED"/>
<path fill-rule="evenodd" clip-rule="evenodd" d="M5 24.3315V25.9982H24.8307V24.3315H5Z" fill="#2F80ED"/>
</svg>
