<svg width="102" height="101" viewBox="0 0 102 101" fill="none" xmlns="http://www.w3.org/2000/svg">
<path d="M25.5001 17.1699C14.8166 17.1699 6.12012 25.7811 6.12012 36.3599V64.6399C6.12012 75.2187 14.8166 83.8299 25.5001 83.8299H76.5001C87.1836 83.8299 95.8801 75.2187 95.8801 64.6399V36.3599C95.8801 25.7811 87.1836 17.1699 76.5001 17.1699H25.5001ZM25.5001 23.2299H76.5001C83.899 23.2299 89.7601 29.0336 89.7601 36.3599V64.6399C89.7601 71.9663 83.899 77.7699 76.5001 77.7699H25.5001C18.1012 77.7699 12.2401 71.9663 12.2401 64.6399V36.3599C12.2401 29.0336 18.1012 23.2299 25.5001 23.2299ZM41.852 33.1721C40.3179 33.162 38.9164 34.6856 38.9195 36.3599V64.6399C38.9144 64.7451 38.9144 64.8504 38.9195 64.9556C39.0217 65.9993 39.6305 66.9679 40.4861 67.4476C41.3416 67.9271 42.4176 67.9031 43.2545 67.3859L65.7264 53.2459C66.6131 52.6924 67.1943 51.599 67.1943 50.4842C67.1943 49.3693 66.6131 48.2759 65.7264 47.7224L43.2545 33.5824C42.8284 33.3201 42.3411 33.1775 41.852 33.1721ZM44.7526 41.8518L58.427 50.4999L44.7526 59.1164V41.8518Z" fill="white"/>
</svg>
