<svg width="40" height="40" viewBox="0 0 40 40" fill="none" xmlns="http://www.w3.org/2000/svg">
<path d="M32.4399 25.3601L32.3999 25.3201L29.3999 23.4401C28.5599 22.8401 27.6399 22.6801 26.6799 22.9601C25.5599 23.2801 24.5999 24.2801 24.1199 25.5601C23.8399 26.3601 23.3599 26.6401 22.5199 26.5201C19.4399 26.1201 14.1999 20.6001 13.8799 17.4401C13.7999 16.5601 14.0799 16.0801 14.8799 15.8401C15.9999 15.4001 16.7999 14.6001 17.1199 13.6001C17.3999 12.6001 17.1999 11.5601 16.5199 10.6001L14.6399 7.60012L14.5999 7.56012C13.6799 6.32012 12.7199 5.68012 11.5599 5.60012C10.1199 5.48012 8.55991 6.28012 6.83991 8.00012C2.71991 12.1201 6.23991 21.8801 12.1599 27.8001C16.2799 31.9201 22.2799 34.9201 26.9599 34.9201C28.8799 34.9201 30.5599 34.4001 31.7999 33.2801C31.8799 33.2401 31.9599 33.2001 31.9999 33.1201C33.7199 31.4001 34.5199 29.8401 34.3999 28.4001C34.3199 27.2401 33.6799 26.2401 32.4399 25.3601ZM30.9599 31.8401C30.9199 31.8801 30.8399 31.9201 30.7999 31.9601C27.6399 35.1201 19.1199 32.5201 13.2399 26.6401C7.39991 20.8001 4.83991 12.2801 7.99991 9.12012C9.35991 7.76012 10.5199 7.08012 11.4799 7.16012C12.1199 7.20012 12.7199 7.64012 13.3199 8.44012L15.1999 11.4401L15.2399 11.4801C15.6399 12.0001 15.7599 12.6001 15.5999 13.1201C15.4399 13.6401 14.9999 14.0801 14.3199 14.3201C12.8799 14.8001 12.1199 16.0001 12.2799 17.6001C12.6799 21.5201 18.4799 27.6001 22.3199 28.1201C22.4799 28.1601 22.6799 28.1601 22.8399 28.1601C24.1599 28.1601 25.1599 27.4401 25.6399 26.1601C25.9599 25.3601 26.5199 24.7201 27.1599 24.5201C27.5999 24.4001 28.0399 24.4801 28.4799 24.8001L28.5199 24.8401L31.5199 26.7201C32.3599 27.3201 32.7599 27.9201 32.7999 28.5601C32.8799 29.4001 32.2399 30.5201 30.9599 31.8401Z" fill="#2F80ED"/>
<path d="M20.4401 5.12012C20.0001 5.12012 19.6401 5.48012 19.6401 5.92012C19.6401 6.36012 20.0001 6.72012 20.4401 6.72012C27.5601 6.72012 33.3601 12.5201 33.3601 19.6401C33.3601 20.0801 33.7201 20.4401 34.1601 20.4401C34.6001 20.4401 34.9601 20.0801 34.9601 19.6401C34.9601 11.6001 28.4401 5.12012 20.4401 5.12012Z" fill="#2F80ED"/>
<path d="M20.4401 9.95986C25.7601 9.95986 30.1201 14.2799 30.1201 19.6399C30.1201 20.0799 30.4801 20.4399 30.9201 20.4399C31.3601 20.4399 31.7201 20.0799 31.7201 19.6399C31.7201 13.4399 26.6801 8.35986 20.4401 8.35986C20.0001 8.35986 19.6401 8.71986 19.6401 9.15986C19.6401 9.59986 20.0001 9.95986 20.4401 9.95986Z" fill="#2F80ED"/>
<path d="M20.4401 13.2801C23.9601 13.2801 26.8001 16.1201 26.8001 19.6001C26.8001 20.0401 27.1601 20.4001 27.6001 20.4001C28.0401 20.4001 28.4001 20.0401 28.4001 19.6001C28.4001 15.2001 24.8401 11.6401 20.4401 11.6401C20.0001 11.6401 19.6401 12.0001 19.6401 12.4401C19.6401 12.9201 20.0001 13.2801 20.4401 13.2801Z" fill="#2F80ED"/>
</svg>
