<svg width="40" height="40" viewBox="0 0 40 40" fill="none" xmlns="http://www.w3.org/2000/svg">
<circle cx="20" cy="20" r="19" stroke="#2F80ED" stroke-width="2"/>
<path d="M15.1836 15.8516C15.1602 14.5938 15.6016 13.5859 16.5078 12.8281C17.4141 12.0703 18.5703 11.6914 19.9766 11.6914C21.5156 11.6914 22.7109 12.0859 23.5625 12.875C24.4141 13.6562 24.8398 14.75 24.8398 16.1562C24.8398 17.1641 24.5625 18.0859 24.0078 18.9219C23.4609 19.7578 22.7344 20.6133 21.8281 21.4883C21.4141 21.9102 21.1602 22.2891 21.0664 22.625C20.9805 22.9609 20.9375 23.4844 20.9375 24.1953H18.6289C18.6367 23.0547 18.7305 22.2695 18.9102 21.8398C19.0977 21.4023 19.5898 20.8242 20.3867 20.1055C21.1602 19.1914 21.7109 18.4883 22.0391 17.9961C22.3672 17.5039 22.5312 16.9102 22.5312 16.2148C22.5312 15.3867 22.3086 14.75 21.8633 14.3047C21.4258 13.8594 20.7969 13.6367 19.9766 13.6367C19.2656 13.6367 18.6602 13.832 18.1602 14.2227C17.668 14.6055 17.4219 15.1719 17.4219 15.9219H15.2188L15.1836 15.8516ZM18.6055 29V26.5625H21.0078V29H18.6055Z" fill="#2F80ED"/>
</svg>
